<svg width="38" height="38" viewBox="0 0 38 38" fill="none" xmlns="http://www.w3.org/2000/svg">
<circle cx="19" cy="19" r="18.5" stroke="#FBF1EA"/>
<path d="M15.4256 29.9822C15.4256 28.0943 15.4256 26.2073 15.4256 24.3211V19.4339C15.4256 19.3908 15.4256 19.3476 15.4256 19.2893C15.3699 19.2893 15.3195 19.2893 15.2718 19.2893C14.5932 19.2893 13.9172 19.2893 13.2413 19.2893C13.0637 19.2893 12.9974 19.2309 13.0001 19.0609C13.0001 17.9021 13.0001 16.7442 13.0001 15.5871C13.0001 15.4095 13.0796 15.3612 13.2493 15.3638C13.9119 15.3638 14.5746 15.3638 15.24 15.3638H15.4202C15.4202 15.2902 15.4202 15.2268 15.4202 15.1608C15.4202 14.3158 15.3964 13.4734 15.4362 12.6233C15.4417 11.6958 15.6867 10.7841 16.1492 9.96909C16.6435 9.17084 17.4353 8.5815 18.3653 8.31972C19.0658 8.10887 19.7967 8.00525 20.531 8.01269C21.6072 8.01269 22.6834 8.00846 23.7596 8C23.9319 8 23.9929 8.0609 23.9929 8.22076C23.9929 9.3897 23.9929 10.5595 23.9929 11.7301C23.9929 11.8849 23.9372 11.9356 23.7729 11.9356C22.9989 11.9356 22.2248 11.9356 21.4508 11.9636C21.223 11.9836 21.001 12.0438 20.796 12.1412C20.681 12.1975 20.5837 12.2823 20.5143 12.3867C20.4448 12.4911 20.4058 12.6113 20.4011 12.7349C20.3692 12.9527 20.3532 13.1723 20.3534 13.3922C20.3534 14.0443 20.3534 14.6964 20.3534 15.3612C20.3882 15.3692 20.4237 15.3743 20.4594 15.3765H23.749C24.0141 15.3765 24.0141 15.3942 23.9903 15.6505C23.8948 16.4803 23.8074 17.31 23.7252 18.1398C23.6881 18.4595 23.6404 18.7767 23.6112 19.0939C23.5979 19.2614 23.5131 19.2969 23.3461 19.2969C22.3918 19.2969 21.4402 19.2969 20.4886 19.2969H20.3375V19.5862C20.3375 22.9948 20.3375 26.4044 20.3375 29.8148C20.3375 29.8757 20.3375 29.9366 20.3216 30L15.4256 29.9822Z" fill="#FBF1EA"/>
</svg>
