<svg width="38" height="38" viewBox="0 0 38 38" fill="none" xmlns="http://www.w3.org/2000/svg">
<circle cx="19" cy="19" r="18.5" fill="#3E3E3E" stroke="#FBF1EA"/>
<path d="M26.3335 8H11.6665C11.1849 7.9997 10.708 8.09433 10.263 8.27848C9.81804 8.46263 9.41374 8.73269 9.07321 9.07321C8.73269 9.41374 8.46263 9.81804 8.27848 10.263C8.09433 10.708 7.9997 11.1849 8 11.6665V26.3335C8 27.3059 8.38629 28.2385 9.07389 28.9261C9.76148 29.6137 10.6941 30 11.6665 30H26.3335C27.3057 29.9994 28.238 29.6129 28.9254 28.9254C29.6129 28.238 29.9994 27.3057 30 26.3335V11.6665C30 11.185 29.9052 10.7082 29.7209 10.2634C29.5366 9.81854 29.2666 9.41435 28.9261 9.07389C28.5857 8.73342 28.1815 8.46335 27.7366 8.27909C27.2918 8.09484 26.815 8 26.3335 8ZM28.1662 26.3335C28.1662 26.5742 28.1188 26.8125 28.0267 27.0349C27.9346 27.2572 27.7996 27.4592 27.6294 27.6294C27.4592 27.7996 27.2572 27.9346 27.0349 28.0267C26.8125 28.1188 26.5742 28.1662 26.3335 28.1662H11.6665C11.1803 28.1662 10.7141 27.9731 10.3702 27.6295C10.0263 27.2858 9.83297 26.8197 9.83266 26.3335V11.6665C9.83266 11.1801 10.0259 10.7137 10.3698 10.3698C10.7137 10.0259 11.1801 9.83266 11.6665 9.83266H26.3335C26.5743 9.83266 26.8127 9.8801 27.0351 9.97228C27.2575 10.0644 27.4596 10.1995 27.6298 10.3698C27.8 10.5401 27.935 10.7423 28.027 10.9648C28.119 11.1873 28.1663 11.4257 28.1662 11.6665V26.3335Z" fill="#FBF1EA"/>
<path d="M18.9989 13.4988C17.726 13.4988 16.4926 13.9402 15.5088 14.7478C14.5249 15.5553 13.8515 16.679 13.6033 17.9274C13.3551 19.1758 13.5474 20.4716 14.1475 21.5941C14.7477 22.7165 15.7184 23.5962 16.8944 24.0831C18.0704 24.5701 19.3788 24.6342 20.5968 24.2646C21.8148 23.8949 22.8669 23.1144 23.5739 22.056C24.2808 20.9976 24.599 19.7267 24.474 18.4601C24.349 17.1934 23.7887 16.0093 22.8885 15.1094C22.3779 14.5985 21.7715 14.1932 21.104 13.9169C20.4366 13.6405 19.7212 13.4984 18.9989 13.4988ZM18.9989 22.6655C18.1512 22.6651 17.33 22.3708 16.675 21.8327C16.02 21.2947 15.5718 20.5462 15.4068 19.7148C15.2418 18.8834 15.3701 18.0205 15.7699 17.2731C16.1697 16.5256 16.8163 15.94 17.5994 15.6158C18.3826 15.2916 19.254 15.249 20.0651 15.4952C20.8762 15.7413 21.5768 16.2611 22.0477 16.9659C22.5185 17.6708 22.7305 18.517 22.6474 19.3606C22.5643 20.2041 22.1913 20.9928 21.592 21.5922C21.2518 21.9334 20.8477 22.2042 20.4027 22.389C19.9577 22.5738 19.4807 22.6689 18.9989 22.669V22.6655Z" fill="#FBF1EA"/>
<path d="M26.3326 13.0407C26.3337 13.314 26.2537 13.5815 26.1027 13.8092C25.9517 14.037 25.7365 14.2149 25.4844 14.3202C25.2322 14.4256 24.9544 14.4538 24.6863 14.4011C24.4181 14.3485 24.1716 14.2175 23.9779 14.0247C23.7843 13.8318 23.6522 13.5858 23.5985 13.3179C23.5447 13.0499 23.5717 12.7721 23.6761 12.5195C23.7804 12.2669 23.9573 12.0509 24.1845 11.899C24.4116 11.747 24.6788 11.6659 24.9521 11.6659C25.1331 11.6651 25.3125 11.7001 25.4799 11.7689C25.6474 11.8376 25.7996 11.9388 25.9279 12.0665C26.0562 12.1943 26.158 12.3461 26.2274 12.5133C26.2968 12.6804 26.3326 12.8597 26.3326 13.0407Z" fill="#FBF1EA"/>
</svg>
