<?xml version="1.0" encoding="utf-8"?>
<!-- Generator: Adobe Illustrator 27.1.1, SVG Export Plug-In . SVG Version: 6.00 Build 0)  -->
<svg version="1.1" xmlns="http://www.w3.org/2000/svg" xmlns:xlink="http://www.w3.org/1999/xlink" x="0px" y="0px"
	 viewBox="0 0 1920 772.5" style="enable-background:new 0 0 1920 772.5;" xml:space="preserve">
<style type="text/css">
	.st0{fill:#FFFFFF;}
</style>
<g id="background">
</g>
<g id="symbol">
	<g>
		<g>
			<path d="M601.6,461.2l-34.8-11.8c-0.4-0.1-0.9,0-1.2,0.2c-0.4,0.2-0.6,0.6-0.8,1c-3.8,12-14.6,25.1-35.6,25.1
				c-21.8,0-41.8-16-41.8-44.4c0-28.6,19.6-44.4,41.4-44.4c18.1,0,28.1,10.1,32.8,21.1c0.2,0.7,1,1.2,1.7,1l35.9-12.5
				c0.7-0.3,1-1.2,0.7-1.8c-8.7-24.5-32.3-47.1-71.9-47.1c-45.9,0-81.2,35.1-81.2,83.7c0,48.4,35.9,83.7,82.4,83.7
				c41.1,0,65.7-26.1,73.2-52.1c0.1-0.2,0.1-0.3,0.1-0.5c0-0.2,0-0.4-0.1-0.5c-0.1-0.2-0.2-0.3-0.3-0.4
				C602,461.3,601.8,461.3,601.6,461.2z M1147.2,414.1l-22.5-4.7c-8.8-1.8-14.3-6.2-14.3-13.8c0-9.1,8.8-15.8,20-15.8
				c15.6,0,22.3,8.8,25.1,17.1c0.2,1,1,1.3,1.7,1l32-12.5c0.7-0.3,1-1,0.8-1.7c-5.8-16.3-22.5-36.3-59.9-36.3
				c-33.9,0-58.9,23.3-58.9,51.7c0,21.8,13.8,40.9,44.3,47.4l20.8,5c12.3,2.7,17,7.7,17,14.8c0,8.2-6.6,15.6-20.8,15.6
				c-18,0-27.1-10.8-28.6-22.5c0-0.8-0.7-1.3-1.8-1.2l-33.6,7.5c-0.7,0.2-1.3,0.8-1.3,1.7c2.7,17.8,19.5,47.3,65.7,47.3
				c41.6,0,61.4-26.3,61.4-52.1C1194.1,439.9,1178.3,420.5,1147.2,414.1z M1402.1,347.6c-40.8,0-77.7,32.6-77.7,83
				c0,53.2,38.1,84.4,81.4,84.4c32.3,0,55.1-15.6,66.4-36.9c0.3-0.8,0-1.7-0.7-2l-31.8-13.8c-0.7-0.2-1.5,0-1.8,0.7
				c-6,9.1-16.3,15.3-31.8,15.3c-21.5,0-38.9-15-39.9-35.6h111.8c0.7,0,1.3-0.8,1.3-1.3c0.3-2.2,0.7-7.3,0.7-12
				C1479.9,378.7,1450.7,347.6,1402.1,347.6z M1437.8,413.3h-70.7c1-14.3,13.3-30.8,35.4-30.8
				C1426.9,382.5,1437.2,397.7,1437.8,413.3z M1661.1,277.9h-39.9c-0.7,0-1.2,0.7-1.2,1.3v89c-4.3-8.5-17.3-19.6-44.6-19.6
				c-44.4,0-75.4,36.1-75.4,82.4c0,47.6,31.8,83,76.7,83c21,0,37.1-9.6,44.1-22.1l0.2,17c0,0.7,0.5,1.2,1.3,1.2h38.8
				c0.2,0,0.4,0,0.5-0.1c0.2-0.1,0.3-0.2,0.4-0.3c0.1-0.1,0.2-0.3,0.3-0.4c0.1-0.2,0.1-0.3,0.1-0.5V279.2
				C1662.4,278.5,1661.8,277.9,1661.1,277.9z M1581.8,476c-22.3,0-38.9-16.8-38.9-45.1c0-28.3,17.1-44.8,38.9-44.8
				c21.8,0,39.3,16.3,39.3,44.4C1621,459.2,1603.6,476,1581.8,476z M1304.9,473.7c-2.8,0.3-7.7,0.8-11.5,0.8
				c-12.3,0-18.8-4.5-18.8-18.5v-65.9h30.5c0.7,0,1.3-0.7,1.3-1.3v-35.1c0-0.5-0.7-1.2-1.3-1.2h-30.5v-46.1c0-0.2,0-0.3-0.1-0.5
				c-0.1-0.2-0.2-0.3-0.3-0.4c-0.1-0.1-0.3-0.2-0.4-0.3c-0.2-0.1-0.3-0.1-0.5-0.1h-39.1c-1,0-1.5,0.7-1.5,1.3l-0.2,46.1h-27.1
				c-0.8,0-1.3,0.7-1.3,1.2v35.1c0,0.2,0,0.3,0.1,0.5c0.1,0.2,0.2,0.3,0.3,0.4c0.1,0.1,0.3,0.2,0.4,0.3c0.2,0.1,0.3,0.1,0.5,0.1
				h27.1v73.4c0,30.6,19,48.7,49.8,48.7c11.8,0,19.3-2,23.3-3.3c0.5-0.3,0.8-0.8,0.8-1.7v-32.4
				C1306.4,474,1305.7,473.4,1304.9,473.7z M976.7,348.3c-23.5,0-40.6,10.3-47.8,21.5v-90.5c0-0.2,0-0.3-0.1-0.5
				c-0.1-0.2-0.2-0.3-0.3-0.4c-0.1-0.1-0.3-0.2-0.4-0.3c-0.2-0.1-0.3-0.1-0.5-0.1h-39.4c-0.7,0-1.3,0.7-1.3,1.3v229.4
				c0,0.2,0,0.4,0.1,0.5c0.1,0.2,0.2,0.3,0.3,0.4c0.1,0.1,0.3,0.2,0.4,0.3c0.2,0.1,0.3,0.1,0.5,0.1h38.8c0.8,0,1.3-0.5,1.3-1.3
				v-17.8c8.3,13.5,25,23.1,46.7,23.1c45.1,0,74.7-35.8,74.7-83.4C1049.7,383.9,1022.9,348.3,976.7,348.3z M967.8,476
				c-21.8,0-39.9-16.6-39.9-45.1c0-29,18.1-45.1,39.9-45.1s38.8,16.1,38.8,45.1C1006.6,459.7,989.6,476,967.8,476z M849,352.6H809
				c-0.8,0-1.3,0.7-1.3,1.2v154.9c0,0.8,0.5,1.3,1.3,1.3H849c0.2,0,0.4,0,0.5-0.1c0.2-0.1,0.3-0.2,0.4-0.3c0.1-0.1,0.2-0.3,0.3-0.4
				c0.1-0.2,0.1-0.3,0.1-0.5V353.7C850.4,353.2,849.7,352.6,849,352.6z M828.9,274c-14.5,0-26.6,11.8-26.6,26.5
				c0,14.3,12,26.1,26.5,26.1c15.8,0,28.1-13.6,26-29.1C853.2,284.4,842.2,274.2,828.9,274z M712.3,348.3c-15,0-32.6,5.2-42.6,17.1
				v-86.2c0-0.7-0.7-1.3-1.3-1.3h-40.1c-0.2,0-0.3,0-0.5,0.1c-0.2,0.1-0.3,0.2-0.4,0.3c-0.1,0.1-0.2,0.3-0.3,0.4
				c-0.1,0.2-0.1,0.3-0.1,0.5v229.4c0,0.8,0.5,1.3,1.3,1.3h40.1c0.2,0,0.3,0,0.5-0.1c0.2-0.1,0.3-0.2,0.4-0.3
				c0.1-0.1,0.2-0.3,0.3-0.4c0.1-0.2,0.1-0.3,0.1-0.5v-91.3c-0.3-17.3,9.8-31.4,29.4-31.4c20.6,0,29.1,14.6,29.1,32.1v90.7
				c0,0.2,0,0.4,0.1,0.5c0.1,0.2,0.2,0.3,0.3,0.4c0.1,0.1,0.3,0.2,0.4,0.3c0.2,0.1,0.3,0.1,0.5,0.1h39.8c0.8,0,1.3-0.5,1.3-1.3
				v-97.8C770.7,376.2,752.4,348.3,712.3,348.3z M285.2,389.5c-3.5,0-6.2,2.7-6.2,6.2c0,1.6,0.6,3.1,1.7,4.3
				c1.3,1.5,5.2,4.8,7.5,6.8c1.3,1.2,3,1.3,3.8,1.3c3.5,0,6.2-2.7,6.2-6.2c0-1.7-1-3.8-2.3-4.8c-2-1.5-5.5-4.8-6.3-5.7
				C288.4,390.3,286.5,389.5,285.2,389.5z M305.5,405.8c-3.2,0-5.5,2.3-5.5,5.5c0,2.3,1.3,4,3.2,5c1.2,0.7,3.5,1.5,5.2,2.2
				c1.2,0.5,1.3,0.5,1.7,0.5c4,0,5.8-2.8,5.8-5.3c0-2.7-1.8-4.7-3.3-5.3c-4.2-1.7-3.3-1.5-4.5-2C307.3,406,306.2,405.8,305.5,405.8z
				 M325.8,413.3c-3.2-0.5-6,1.3-6,4.7c0,1.2,0.4,2.4,1.2,3.3c0.8,0.9,1.8,1.6,3,1.8c1.2,0.3,2.4,0.4,3.7,0.5c2.8,0,5-2,5-4.8
				c0-2.3-1.8-4.5-4.2-5C327.5,413.6,326.3,413.5,325.8,413.3z M299.3,381.2c-3.3,0-5.8,2.5-5.8,5.8c0,2,1,3.8,1.8,4.7
				c1,1,7.5,6,8.8,6.8c1.1,0.6,2.4,1,3.7,1c3,0,5.7-2.5,5.7-5.7c0-2.2-1.2-4.3-2.7-5.3c-2.2-1.3-5.3-3.8-7.3-5.7
				C302.2,381.7,300.8,381.2,299.3,381.2z M341.3,415.5c-2.7,0-4.7,2-4.7,4.7c0,2.7,2,4.7,4.7,4.7c2.7,0,4.7-2,4.7-4.7
				C345.9,417.5,343.9,415.5,341.3,415.5z M324,395.3c-4.3-1-7,1.2-7,4.7c0,2.8,1.7,4.8,3.8,5.5c3.7,1.2,5,1.5,6,1.5
				c2.8,0,5.3-2.2,5.3-5.3c0-2.5-1.5-4.3-4.2-5.2C323.3,395.2,324.3,395.3,324,395.3z M341.3,398.5c-2.7,0-4.7,2-4.7,4.7
				c0,2.7,2,4.7,4.7,4.7c2.7,0,4.7-2,4.7-4.7C345.9,400.5,343.9,398.5,341.3,398.5z M313.7,371c-3,0-5.5,2.5-5.5,5.7
				c0,1.7,1,3.5,2.2,4.5c2.3,2,10.3,6.7,15.3,8.2c0.6,0.2,1.2,0.3,1.8,0.3c0.7,0,1.4-0.1,2.1-0.4c0.7-0.3,1.3-0.7,1.8-1.2
				c0.5-0.5,0.9-1.1,1.2-1.8c0.3-0.7,0.4-1.4,0.4-2.1c0-2.8-2-4.8-3.8-5.5c-4.3-1.7-9.3-4.3-11.8-6.3C316.3,371.5,315,371,313.7,371
				z M341.3,381.5c-2.7,0-4.7,2-4.7,4.7c0,2.7,2,4.7,4.7,4.7c2.7,0,4.7-2,4.7-4.7C345.9,383.5,343.9,381.5,341.3,381.5z
				 M341.4,257.4c-47.9,0-83.9,36.8-83.9,82c0,18.1,5.8,38.8,12.1,46.4c1.5,1.8,3.2,3.2,5.7,3.2c3.8,0,6.7-2.8,6.7-6.7
				c0-1.2-0.5-2.7-1-3.5c-1.5-2.2,1-3.7,2.2-1.7c1,1.7,3.3,3.3,6,3.3c3.5,0,6.3-3,6.3-6.3c0-1.3-0.4-2.5-1-3.7c-1.7-2.7,1-3.7,2-2
				c1.3,2.2,3.7,3.5,6,3.5c1.7,0,3.4-0.7,4.6-1.9c1.2-1.2,1.9-2.9,1.9-4.6c0-1.2-0.3-2.5-0.8-3.3c-3.7-6.5-5.3-13.1-5.3-20.6
				c0-23.8,16.5-40.9,38.4-40.9c18,0,32.3,11.5,36.9,28.5l43.1-14C410.8,280.9,379.9,257.4,341.4,257.4z M397.3,382.9
				c3.5,0,6.2-2.7,6.2-6.2c0-1.6-0.6-3.1-1.7-4.3c-1.3-1.5-5.2-4.8-7.5-6.8c-1.3-1.2-3-1.3-3.8-1.3c-3.5,0-6.2,2.7-6.2,6.2
				c0,1.7,1,3.8,2.3,4.8c2,1.5,5.5,4.8,6.3,5.7C394.2,382,396,382.9,397.3,382.9z M377,366.6c3.2,0,5.5-2.3,5.5-5.5
				c0-2.3-1.3-4-3.2-5c-1.2-0.7-3.5-1.5-5.2-2.2c-1.2-0.5-1.3-0.5-1.7-0.5c-4,0-5.8,2.8-5.8,5.3c0,2.7,1.8,4.7,3.3,5.3
				c4.2,1.7,3.3,1.5,4.5,2C375.2,366.4,376.4,366.6,377,366.6z M356.7,359.1c3.2,0.5,6-1.3,6-4.7c0-1.2-0.4-2.4-1.2-3.3
				c-0.8-0.9-1.8-1.6-3-1.8c-1.2-0.3-2.4-0.4-3.7-0.5c-2.8,0-5,2-5,4.8c0,2.3,1.8,4.5,4.2,5C355.1,358.7,356.2,358.9,356.7,359.1z
				 M383.2,391.2c3.3,0,5.8-2.5,5.8-5.8c0-2-1-3.8-1.8-4.7c-1-1-7.5-6-8.8-6.8c-1.1-0.6-2.4-1-3.7-1c-3,0-5.7,2.5-5.7,5.7
				c0,2.2,1.2,4.3,2.7,5.3c2.2,1.3,5.3,3.8,7.3,5.7C380.4,390.7,381.7,391.2,383.2,391.2z M341.3,356.9c2.7,0,4.7-2,4.7-4.7
				c0-2.7-2-4.7-4.7-4.7c-2.7,0-4.7,2-4.7,4.7C336.6,354.9,338.6,356.9,341.3,356.9z M358.6,377c4.3,1,7-1.2,7-4.7
				c0-2.8-1.7-4.8-3.8-5.5c-3.7-1.2-5-1.5-6-1.5c-2.8,0-5.3,2.2-5.3,5.3c0,2.5,1.5,4.3,4.2,5.2C359.2,377.2,358.2,377,358.6,377z
				 M341.3,373.9c2.7,0,4.7-2,4.7-4.7c0-2.7-2-4.7-4.7-4.7c-2.7,0-4.7,2-4.7,4.7C336.6,371.9,338.6,373.9,341.3,373.9z M368.9,401.3
				c3,0,5.5-2.5,5.5-5.7c0-1.7-1-3.5-2.2-4.5c-2.3-2-10.3-6.7-15.3-8.2c-0.6-0.2-1.2-0.3-1.8-0.3c-0.7,0-1.4,0.1-2.1,0.4
				c-0.7,0.3-1.3,0.7-1.8,1.2c-0.5,0.5-0.9,1.1-1.2,1.8c-0.3,0.7-0.4,1.4-0.4,2.1c0,2.8,2,4.8,3.8,5.5c4.3,1.7,9.3,4.3,11.8,6.3
				C366.2,400.9,367.5,401.3,368.9,401.3z M341.3,390.8c2.7,0,4.7-2,4.7-4.7c0-2.7-2-4.7-4.7-4.7c-2.7,0-4.7,2-4.7,4.7
				C336.6,388.8,338.6,390.8,341.3,390.8z M341.1,515c47.9,0,83.9-36.8,83.9-82c0-18.1-5.8-38.8-12.1-46.4c-1.5-1.8-3.2-3.2-5.7-3.2
				c-3.8,0-6.7,2.8-6.7,6.7c0,1.2,0.5,2.7,1,3.5c1.5,2.2-1,3.7-2.2,1.7c-1-1.7-3.3-3.3-6-3.3c-3.5,0-6.3,3-6.3,6.3
				c0,1.3,0.4,2.5,1,3.7c1.7,2.7-1,3.7-2,2c-1.3-2.2-3.7-3.5-6-3.5c-1.7,0-3.4,0.7-4.6,1.9c-1.2,1.2-1.9,2.9-1.9,4.6
				c0,1.2,0.3,2.5,0.8,3.3c3.7,6.5,5.3,13.1,5.3,20.6c0,23.8-16.5,40.9-38.4,40.9c-18,0-32.3-11.5-36.9-28.5l-43.1,14
				C271.7,491.5,302.7,515,341.1,515z"/>
		</g>
	</g>
</g>
<g id="logotype">
</g>
<g id="Layer_4">
</g>
</svg>
