<?xml version="1.0" encoding="utf-8"?>
<!-- Generator: Adobe Illustrator 26.0.2, SVG Export Plug-In . SVG Version: 6.00 Build 0)  -->
<svg version="1.1" id="Lager_1" xmlns="http://www.w3.org/2000/svg" xmlns:xlink="http://www.w3.org/1999/xlink" x="0px" y="0px"
	 viewBox="0 0 38.4 38.4" style="enable-background:new 0 0 38.4 38.4;" xml:space="preserve">
<style type="text/css">
	.st0{fill:none;stroke:#FBF1EA;}
	.st1{fill-rule:evenodd;clip-rule:evenodd;fill:#FAF0E9;}
</style>
<circle class="st0" cx="19.3" cy="19.2" r="18.5"/>
<g>
	<path class="st1" d="M23.5,8.2L23.5,8.2c0,0.4,0.1,5.2,5.2,5.5c0,4.5,0,0,0,3.7c-0.4,0-3.3-0.2-5.2-1.8l0,7.3
		c0,3.3-1.8,6.5-5.2,7.2c-1,0.2-1.8,0.2-3.3-0.1C6.6,27.4,9.3,15,17.8,16.3c0,4,0,0,0,4c-3.5-0.5-4.6,2.4-3.7,4.5
		c0.8,1.9,4.3,2.3,5.5-0.4c0.1-0.5,0.2-1.1,0.2-1.8V8.2H23.5z"/>
</g>
</svg>
