<?xml version="1.0" encoding="utf-8"?>
<!-- Generator: Adobe Illustrator 26.0.2, SVG Export Plug-In . SVG Version: 6.00 Build 0)  -->
<svg version="1.1" id="Layer_1" xmlns="http://www.w3.org/2000/svg" xmlns:xlink="http://www.w3.org/1999/xlink" x="0px" y="0px"
	 viewBox="0 0 1000 1000" style="enable-background:new 0 0 1000 1000;" xml:space="preserve">
<style type="text/css">
	.st0{fill-rule:evenodd;clip-rule:evenodd;fill:none;stroke:#FFFFFF;stroke-width:3;stroke-miterlimit:10;}
</style>
<g>
	<path class="st0" d="M656.2,75.5v0.7c0,12.8,3.8,197.9,198,209.4c0,172.2,0.1,0,0.1,143c-14.6,0.9-127.9-7.3-198.3-70.2l-0.2,278.4
		c1.7,126.1-68.4,249.7-199.8,274.6c-36.8,7-70,7.8-125.6-4.4c-320.5-95.9-214-571.3,107.8-520.4c0,153.5,0.1,0,0.1,153.5
		c-133-19.6-177.4,91-142.1,170.2c32.2,72.1,164.5,87.7,210.7-14c5.2-19.9,7.8-42.6,7.8-68.1V75.5H656.2z"/>
</g>
</svg>
