<svg width="60" height="60" viewBox="0 0 60 60" fill="none" xmlns="http://www.w3.org/2000/svg">
  <path d="M15 10 L25 10 L30 15 L45 15 L50 20 L50 45 L45 50 L15 50 L10 45 L10 15 Z" stroke="#333" stroke-width="2" fill="none"/>
  <path d="M20 20 Q25 15 30 20 Q35 25 40 20" stroke="#333" stroke-width="2" fill="none"/>
  <path d="M20 30 Q25 25 30 30 Q35 35 40 30" stroke="#333" stroke-width="2" fill="none"/>
  <circle cx="22" cy="25" r="2" fill="#333"/>
  <circle cx="38" cy="35" r="2" fill="#333"/>
  <path d="M15 40 L20 35 L25 40 L30 35 L35 40 L40 35 L45 40" stroke="#333" stroke-width="2" fill="none"/>
</svg> 