<?xml version="1.0" encoding="utf-8"?>
<!-- Generator: Adobe Illustrator 27.7.0, SVG Export Plug-In . SVG Version: 6.00 Build 0)  -->
<svg version="1.1" id="Layer_1" xmlns="http://www.w3.org/2000/svg" xmlns:xlink="http://www.w3.org/1999/xlink" x="0px" y="0px"
	 viewBox="0 0 149.1 145.5" style="enable-background:new 0 0 149.1 145.5;" xml:space="preserve">
<style type="text/css">
	.st0{fill:#DAA620;}
</style>
<path class="st0" d="M88.1,143.2c19.5-3.7,42.5-21.6,53.3-41.5c8-14.7,9.3-29.5,3.9-43c-8-19.7-19.5-35.5-33.1-45.5
	C97,2.1,79.8-1.8,61.2,1.8C39.2,5.9,19.1,20,8.5,38.6C-0.1,53.7-1.7,70.6,4,86.2c6.6,18.1,19.4,34.1,36.2,45.1
	c12.8,8.3,26.6,12.8,39.1,12.8C82.3,144.1,85.3,143.8,88.1,143.2z M110.7,15.3c13.3,9.8,24.4,25.1,32.3,44.4
	c6.5,16.1,1.6,31-3.8,40.8c-12,22-35.5,37.1-51.5,40.2c-13.9,2.6-30.7-1.6-46.1-11.6c-16.3-10.6-28.8-26.2-35.2-43.8
	C-0.5,66.2,5,50.1,10.8,39.9C21,22,40.5,8.4,61.6,4.3c4.3-0.8,8.5-1.2,12.7-1.2C87.4,3.1,99.6,7.2,110.7,15.3z"/>
</svg>
