<?xml version="1.0" encoding="utf-8"?>
<!-- Generator: Adobe Illustrator 25.4.1, SVG Export Plug-In . SVG Version: 6.00 Build 0)  -->
<svg version="1.1" id="Layer_1" xmlns="http://www.w3.org/2000/svg" xmlns:xlink="http://www.w3.org/1999/xlink" x="0px" y="0px"
	 viewBox="0 0 147.97 143.59" style="enable-background:new 0 0 147.97 143.59;" xml:space="preserve">
<style type="text/css">
	.st0{fill:#DAA620;}
</style>
<path class="st0" d="M22.69,53.37c-3.02,0-4.9-2.18-4.9-5.69c0-3.47,1.9-5.63,4.95-5.63c2.46,0,4.04,1.4,4.33,3.84l0.03,0.26
	l-1.92,0.2l-0.03-0.25c-0.2-1.5-1.1-2.36-2.49-2.36c-1.79,0-2.9,1.5-2.9,3.92c0,1.92,0.77,3.98,2.93,3.98c1.31,0,2.26-0.86,2.53-2.3
	l0.05-0.25l1.85,0.32l-0.05,0.26C26.58,52.06,25.03,53.37,22.69,53.37z M35.78,50.15h-3.84l-1.06,2.97h-1.98l4.1-10.82h1.72
	l4.1,10.82h-1.98L35.78,50.15z M33.84,44.8l-1.31,3.67h2.66l-1.31-3.67c-0.01-0.02-0.01-0.03-0.02-0.05
	C33.85,44.77,33.84,44.79,33.84,44.8z M43.3,53.13h1.9v-9.14h3.24v-1.68h-8.37v1.68h3.24V53.13z M56.56,50.15h-3.84l-1.06,2.97
	h-1.98l4.1-10.82h1.72l4.1,10.82h-1.98L56.56,50.15z M54.62,44.8l-1.31,3.67h2.66l-1.31-3.67c-0.01-0.02-0.01-0.03-0.02-0.05
	C54.63,44.77,54.63,44.79,54.62,44.8z M68.81,51.45h-4.76v-9.14h-1.9v10.82h6.66V51.45z M75.66,53.37c-3.02,0-4.97-2.22-4.97-5.66
	s1.95-5.66,4.97-5.66c3.01,0,4.96,2.22,4.96,5.66S78.67,53.37,75.66,53.37z M72.65,47.72c0,2.49,1.12,3.98,3.01,3.98
	c1.9,0,2.99-1.45,2.99-3.98c0-2.53-1.09-3.98-2.99-3.98C73.75,43.74,72.65,45.19,72.65,47.72z M90.62,52.03l0.13,1.1h1.49v-5.9
	h-4.77v1.68h3.02c-0.02,0.75-0.29,2.78-2.66,2.78c-1.91,0-3.05-1.48-3.05-3.95c0-2.46,1.16-3.99,3.03-3.99
	c1.84,0,2.26,1.35,2.36,1.93l0.04,0.25l1.87-0.26l-0.04-0.26c-0.08-0.56-0.68-3.34-4.19-3.34c-3.04,0-5,2.22-5,5.66
	c0,3.38,1.92,5.66,4.77,5.66C88.89,53.37,89.97,52.87,90.62,52.03z M99.64,53.37c2.6,0,4.22-1.57,4.22-4.1v-6.96h-1.9v6.88
	c0,1.56-0.85,2.45-2.32,2.45c-1.48,0-2.32-0.89-2.32-2.45v-6.88h-1.9v6.96C95.42,51.8,97.03,53.37,99.64,53.37z M114.47,51.45h-5.11
	v-3.02h4.76v-1.68h-4.76v-2.76h5.01v-1.68h-6.9v10.82h7V51.45z M126.58,47.7c0,3.24-2.08,5.42-5.18,5.42h-3.61V42.31h3.64
	C124.52,42.31,126.58,44.47,126.58,47.7z M119.69,51.45h1.69c2.23,0,3.22-1.88,3.22-3.75c0-2.29-1.22-3.72-3.19-3.72h-1.71V51.45z
	 M69.98,69.35c0.96,0.43,1.52,1.33,1.52,2.54c0,1.49-0.96,3.09-3.67,3.09h-4.15V64.16h3.84c3.42,0,3.68,2.3,3.68,3
	C71.21,68.1,70.76,68.89,69.98,69.35z M65.58,65.84v2.79h1.95c1.61,0,1.8-0.78,1.8-1.37c0-0.96-0.59-1.42-1.8-1.42H65.58z
	 M65.58,73.3h2.18c1.54,0,1.86-0.84,1.86-1.54c0-0.95-0.59-1.45-1.71-1.45h-2.32V73.3z M76.73,74.98h1.91v-4.3l3.68-6.52h-2.14
	l-2.44,4.51c-0.02,0.04-0.04,0.08-0.06,0.12c-0.02-0.04-0.04-0.08-0.06-0.12l-2.44-4.5h-2.14l3.68,6.52V74.98z M25.4,86.01
	l4.1,10.82h-1.98l-1.06-2.97h-3.84l-1.06,2.97h-1.98l4.1-10.82H25.4z M24.52,88.51l-1.31,3.67h2.66l-1.31-3.67
	c-0.01-0.02-0.01-0.03-0.02-0.05C24.54,88.47,24.53,88.49,24.52,88.51z M37.62,92.26l2.7,4.57h-2.15l-2.52-4.28h-1.68v4.28h-1.9
	V86.01h4.07c3.19,0,3.67,2.05,3.67,3.28C39.8,90.73,38.99,91.83,37.62,92.26z M33.95,90.87h2.02c1.25,0,1.86-0.52,1.86-1.58
	c0-1.08-0.61-1.6-1.86-1.6h-2.02V90.87z M41.85,87.69h3.24v9.14h1.9v-9.14h3.24v-1.68h-8.37V87.69z M60.41,89.32
	c0,2.01-1.47,3.31-3.76,3.31h-2.02v4.21h-1.9V86.01h3.92C58.94,86.01,60.41,87.31,60.41,89.32z M54.64,90.94h1.87
	c1.19,0,1.93-0.62,1.93-1.63s-0.74-1.63-1.93-1.63h-1.87V90.94z M72.22,91.42c0,3.44-1.95,5.66-4.96,5.66
	c-3.02,0-4.97-2.22-4.97-5.66c0-3.44,1.95-5.66,4.97-5.66C70.27,85.76,72.22,87.98,72.22,91.42z M70.25,91.42
	c0-2.53-1.09-3.98-2.99-3.98c-1.91,0-3.01,1.45-3.01,3.98c0,2.49,1.12,3.98,3.01,3.98C69.16,95.4,70.25,93.95,70.25,91.42z
	 M80.81,92.26l2.7,4.57h-2.15l-2.52-4.28h-1.68v4.28h-1.9V86.01h4.07c3.19,0,3.67,2.05,3.67,3.28C83,90.73,82.19,91.83,80.81,92.26z
	 M77.15,90.87h2.02c1.25,0,1.86-0.52,1.86-1.58c0-1.08-0.61-1.6-1.86-1.6h-2.02V90.87z M85.04,87.69h3.24v9.14h1.9v-9.14h3.24v-1.68
	h-8.37V87.69z M100.48,86.01l4.1,10.82h-1.98l-1.06-2.97H97.7l-1.06,2.97h-1.98l4.1-10.82H100.48z M99.6,88.51l-1.31,3.67h2.66
	l-1.31-3.67c-0.01-0.02-0.01-0.03-0.02-0.05C99.62,88.47,99.61,88.49,99.6,88.51z M114.95,93.74c0,1.49-0.96,3.09-3.67,3.09h-4.15
	V86.01h3.84c3.42,0,3.68,2.3,3.68,3c0,0.94-0.46,1.74-1.23,2.19C114.4,91.63,114.95,92.54,114.95,93.74z M109.03,87.69v2.79h1.95
	c1.61,0,1.8-0.78,1.8-1.37c0-0.96-0.59-1.42-1.8-1.42H109.03z M109.03,95.15h2.18c1.54,0,1.86-0.84,1.86-1.54
	c0-0.95-0.59-1.45-1.71-1.45h-2.32V95.15z M120.03,86.01h-1.9v10.82h6.66v-1.68h-4.76V86.01z M129.35,95.15v-3.02h4.76v-1.68h-4.76
	v-2.76h5.01v-1.68h-6.9v10.82h7v-1.68H129.35z M87.5,142.78c19.54-3.73,42.45-21.56,53.3-41.48c7.99-14.67,9.33-29.54,3.88-43
	c-8-19.75-19.46-35.49-33.13-45.53C96.34,1.58,79.16-2.28,60.51,1.28C38.59,5.46,18.42,19.58,7.86,38.12
	c-8.58,15.07-10.2,31.97-4.55,47.6c6.56,18.14,19.42,34.15,36.2,45.07c12.81,8.34,26.61,12.8,39.07,12.8
	C81.65,143.59,84.64,143.32,87.5,142.78z M110.01,14.86c13.28,9.75,24.44,25.11,32.26,44.41c6.51,16.06,1.55,31.04-3.75,40.78
	c-11.98,22-35.48,37.11-51.5,40.17c-13.88,2.65-30.67-1.58-46.08-11.6C24.62,118,12.13,102.45,5.76,84.84
	c-6.9-19.1-1.44-35.25,4.36-45.43C20.32,21.51,39.81,7.88,61,3.84c4.3-0.82,8.52-1.23,12.66-1.23
	C86.72,2.61,98.91,6.71,110.01,14.86z"/>
</svg>
