<?xml version="1.0" encoding="UTF-8" standalone="no"?>
<svg
   id="Lager_1"
   data-name="Lager 1"
   version="1.1"
   viewBox="0 0 283.46 141.73"
   sodipodi:docname="158cd0e1-a28d-4e5b-bd57-166201272505.svgz"
   xmlns:inkscape="http://www.inkscape.org/namespaces/inkscape"
   xmlns:sodipodi="http://sodipodi.sourceforge.net/DTD/sodipodi-0.dtd"
   xmlns="http://www.w3.org/2000/svg"
   xmlns:svg="http://www.w3.org/2000/svg">
  <sodipodi:namedview
     id="namedview2"
     pagecolor="#ffffff"
     bordercolor="#000000"
     borderopacity="0.25"
     inkscape:showpageshadow="2"
     inkscape:pageopacity="0.0"
     inkscape:pagecheckerboard="0"
     inkscape:deskcolor="#d1d1d1" />
  <defs
     id="defs1">
    <style
       id="style1">
      .cls-1 {
        clip-path: url(#clippath);
      }

      .cls-2 {
        fill: none;
      }

      .cls-2, .cls-3, .cls-4 {
        stroke-width: 0px;
      }

      .cls-3 {
        fill: #1d1d1b;
      }

      .cls-4 {
        fill: #cd1719;
      }
    </style>
    <clipPath
       id="clippath">
      <rect
         class="cls-2"
         x="7.48"
         y="50.96"
         width="266.13"
         height="40.88"
         id="rect1" />
    </clipPath>
  </defs>
  <g
     class="cls-1"
     clip-path="url(#clippath)"
     id="g2">
    <path
       class="cls-4"
       d="M267.34,91.77c3.46,0,6.27-2.86,6.27-6.39s-2.81-6.39-6.27-6.39-6.27,2.86-6.27,6.39,2.81,6.39,6.27,6.39"
       id="path1" />
    <path
       class="cls-3"
       d="M240.67,52.57c.06.18.25.37.19.51-.25.64.12,1.24.12,1.84.06.41-.12.83,0,1.24.19.51.12.96.19,1.47.06.69-.12,1.38-.06,2.07.12.73.31,1.47.12,2.16-.12.73-.19,1.47-.12,2.2,0,1.19.06,2.43,0,3.63,0,1.24-.12,2.43-.06,3.63.06.64-.06,1.33-.06,1.97-.06,1.15.06,2.3,0,3.44-.06,1.29.06,2.62-.12,3.9-.19.87,0,1.79-.06,2.71-.19,1.1.06,2.2-.06,3.31-.12.69,0,1.38,0,2.07,0,.73-.25,1.51.12,2.2.68.51,1.55.41,2.36.37,2.61-.23,5.27-.14,7.88-.18,2.11,0,4.22.23,6.33.05.37-.46.43-.46.19-1.01-.19-.6-.19-1.15-.25-1.75,0-.92.19-1.84,0-2.66-.12-.28-.56-.37-.62-.37-1.49,0-2.67.14-3.97.09-1.37,0-2.73.05-4.1-.05,0-1.06-.31-2.02-.19-2.98,0-.37.06-.69-.12-1.06-.25-.37-.19-.83-.06-1.15.06-.41.06-.83,0-1.19,0-.28-.12-.55-.19-.83.19-.14.5-.14.56-.46-.19-1.1-.31-2.3-.06-3.49.62,0,1.18-.05,1.8,0,1.37.09,2.67-.32,4.1-.14.31-.37.37-.73.5-1.1-.06-.14-.12,0-.12-.14q.06-.09.06-.23c-.06-.28-.19-.6-.12-.73.37-.69-.06-1.15,0-1.84.06-.37-.06-1.06.06-1.47-.37-.09-.93.05-1.3-.09-.93.14-1.92-.05-2.42-.05-.99,0-1.37.05-2.48.05v-4.18c0-.41-.06-.83-.31-1.19.19-.55,0-1.06-.19-1.52.43-.41.37-.87.25-1.29-.06-.14-.06-.23-.06-.32.12-.51,0-.96.06-1.42v-1.06c.19-.14.37-.09.5-.09,1.12,0,2.23,0,3.41.09.81.09,1.61,0,2.48-.09.68-.05,1.37,0,2.05-.23.31-.51-.19-1.06.19-1.56-.37-.64-.06-1.33-.31-1.97-.12-.41-.12-.87.12-1.24-.12-.23-.19-.41-.5-.55-.5.14-1.3-.23-2.17.05-.37-.09-.25-.05-.56-.05-.37.05-.68.14-.99.09-.93-.09-1.86-.18-2.73-.09-1.74.23-3.47,0-5.21.18-.81.09-1.68-.09-2.54-.09-.68,0-1.24.09-1.49.6M237.69,85.86c-.68-.18-1.24-.09-1.86,0-.06.05-.19.05-.25,0-.37-.18-.81-.09-1.18-.09h-4.1c-.25,0-.5.05-.74-.18-.19-.6,0-1.33-.06-2.07.5-.46-.12-1.19.31-1.7.06-.23-.25-.32-.19-.46.12-.6,0-1.19,0-1.79s-.19-1.15-.12-1.7c.06-.64.19-1.29.19-1.93-.06-.6,0-1.19.06-1.79.19-1.06.12-2.11.12-3.17-.06-1.01-.06-2.02-.19-3.03-.12-1.65,0-3.26,0-4.91.06-.87.06-1.74.31-2.62-.31-.32.12-.64,0-.96-.19-.51-.12-1.06-.12-1.56.12-1.19-.31-2.34-.19-3.54,0-.23-.31-.41-.19-.69.37-.6.25-1.19.12-1.88-2.48-.09-4.96.14-7.51.28.19,1.38-.19,2.71.25,3.99-.37,1.33-.12,2.66-.19,3.95,0,1.29.06,2.57.06,3.81-.19.92-.12,1.79,0,2.66.12.6.19,1.19.06,1.79-.25.92-.31,1.88-.31,2.85.06,1.33-.06,2.71.12,4.04.12.96-.06,1.93.06,2.85.12,1.1-.19,2.2-.19,3.31.06,1.61-.06,3.26.12,4.91.06,1.01,0,2.02.19,3.03.06.23.12.51,0,.73-.31.41-.19.83-.06,1.19.31,0,.5.09.74.09,1.12.09,2.23,0,3.29-.05.56-.05,1.18-.09,1.68-.05,1.92.05,3.79,0,5.65-.14.19,0,.37,0,.56.05.68.14,1.37.18,2.05-.09.43.23.93.05,1.43.23l.43-.32c.12-1.42,0-2.85.5-4.18-.12-.41-.5-.64-.87-.87M205.61,57.85c1.68-.32,3.1-.18,4.47.64.12.32.37.64.56,1.01.06,1.06-.06,2.16.12,3.35-.31.6.31,1.24.06,1.93-.19.64.06,1.29.12,1.93l-.99.83c-.37.32-.87.55-1.55.6-.99.05-1.92-.09-2.85.18-.12-.83-.06-1.61-.06-2.39.06-.6-.37-1.33-.06-1.51.12-.14.19-1.06.19-1.42,0-1.7.19-3.4,0-5.14M205.24,85.63c.37-4.27,0-4.87,0-6.89.06-2.25.19-3.99,0-4.27,1.18-.28,2.92-.37,4.34-.05.87.6,1.24,1.56,1.24,2.66.06.78-.43,1.7,0,1.97.5.23-.06.23-.12,1.29-.06.41.12.78.12.96,0,.87.06,1.79-.06,2.66-.25,1.06-1.92,1.51-3.41,1.65-.68.05-1.37.05-2.11,0M197.91,66.62c0,.23-.19.32-.19.55.06.96.06,1.93.06,2.89,0,.55.19,1.1.06,1.61-.12.69-.19,1.42-.19,2.11.12,1.47.12,2.89.25,4.36.06.64,0,1.29,0,1.93,0,1.24-.06,2.43-.12,3.67-.06,1.74-.25,3.54-.25,5.28,0,.23,0,.46-.12.69-.19.55-.06,1.06.37,1.52,2.05-.18,4.03-.23,6.02-.18,2.05,0,4.03.09,6.27.09.56-.23,1.37-.23,2.23-.23.43-.41,1.18-.37,1.74-.69l2.17-1.42c.99-.64,1.8-1.7,1.99-2.66.12-.87.43-4.09.12-4.41.06-1.56,0-2.16-.06-2.34t.06-.09c.31-.46,0-1.01.06-1.52.19-1.29.31-2.53-.56-3.72-.68-.96-1.86-1.56-3.23-2.07-.37-.14-.81-.23-1.12-.6.74,0,1.18-.41,1.74-.6.87-.23,1.3-.78,1.74-1.29.68-.83.87-1.84.93-2.85.06-.41-.06-.92.12-1.33.37-.73.06-1.52.06-2.3.06-.64,0-1.29.12-1.93.06-.55.31-1.15-.06-1.7-.12-.18-.12-.41-.12-.6l-.12-.69c-.25-.83-.68-1.61-.93-2.39-.19-.69-.81-1.15-1.24-1.75-.37-.51-1.12-.73-1.74-1.06-1.3-.6-2.61-.96-4.1-.92h-4.53c-.19,0-.5.05-.62-.05-.43-.23-.93-.09-1.37-.14-.5-.05-.93,0-1.43,0-1.3.09-2.54-.05-3.91-.14-.12.05-.37.09-.56.23.19.96.31,1.93.25,2.89,0,.92-.12,1.84-.12,2.76-.06,1.79-.12,3.63.06,5.42.12.96.06,1.93.06,2.94,0,.23,0,.51.19.69M185.38,80.07c-1.18.32-3.85.09-5.09.14.12-.73.5-1.47.5-2.2,0-.28-.19-.55,0-.87.19-.23.19-.51,0-.78v-.14c.37-.87.62-4.68.87-5.6.12-.6.31-2.94.62-3.58-.06-.37.12-.64.06-.96l.25-1.84c0-.18.06-.28.19-.41.12,0,.19,0,.25.09.12.37.37.87.37,1.42.06.09.06,1.06.12,1.19.12.23.37,2.89.37,3.17.25.92.31,1.29.25,1.88.19.6.56,3.49.68,4.13,0,.09-.06.28.06.37.19.14,0,.28.06.37.25,1.19.31,2.39.43,3.63M185.94,85.4c.19.37.19.69.31,1.01.12.51.12.96.25,1.47.19.37.37.78.25,1.15-.12.23-.06.46,0,.69l.19.69q0,.69.99.55c.06,0,.19.09.25.09l1.68-.09c.87-.05,1.68.18,2.54,0h.06c.68.28,1.49-.18,2.11.18.12.05.37-.05.5-.05.43,0,.12-.64.06-1.01-.25-.37-.25-.69-.31-1.15-.12-.92-.43-1.84-.62-2.75l-.5-2.8c-.06-.46,0-.87-.25-1.33-.19-.46-.31-.87-.25-1.33,0-.28,0-.55-.12-.83-.19-.55-.31-1.1-.31-1.65,0-.83-.31-1.61-.43-2.39l-.37-1.61c-.12-.64-.12-1.29-.31-1.93-.12-.41-.19-.87-.25-1.33-.06-.73-.06-1.47-.31-2.2-.12-.18-.12-.37-.19-.55-.12-1.1-.25-2.25-.5-3.35-.31-1.01-.31-2.02-.5-3.03-.06-.55-.25-1.1-.19-1.65,0-1.01-.43-1.97-.56-2.98-.37-.14-.12-.51-.25-.73-.19-.23-.12-.55-.19-.83-.06-.73-.12-1.51-.25-2.25-.06-.28-.06-.78-.19-1.01-.19-.23-.31-.18-.56-.37-.19-.14-1.3-.09-1.49-.09-.56,0-1.12,0-1.68-.09-.56-.09-1.18-.09-1.74.09-.12.05-.37.05-.56.05-.56.05-1.12-.09-1.74-.05-.43.05-1.3,0-1.68-.14-.25-.05-.37.05-.5.14-.12.14-.25.32-.31.51-.12.55-.37,1.15-.5,1.65-.12,1.1-.43,3.08-.31,3.26-.19.28-.62,1.29-.62,1.97,0,.73-.12,1.15-.25,1.75-.06.46-.12,1.01-.12,1.47-.19,1.65-.68,1.79-.5,2.76.12.37-.31.87-.43,1.29-.25.78-.25,1.61-.37,2.39-.06.32,0,.6-.19.87-.12.23-.19.46-.19.69,0,.96-.25,1.88-.37,2.85-.12,1.01-.43,1.97-.43,2.98.06.18,0,.37-.06.55-.5.96-.5,2.02-.68,3.03l-.25,1.29c-.19,1.06-.62,2.02-.81,3.08-.06.64-.12,1.29-.31,1.93-.19.46-.25.96-.37,1.47-.12.64-.12,1.24-.43,1.84-.19.46-.25,1.33-.12,1.51,0,.14.62.32,1.12.23.12-.05.31-.05.5,0,1.3.09,2.61.09,3.91,0,.56-.09,1.12-.23,1.68-.09.37.09.56-.09.62-.28.19-.51.31-1.06.43-1.56.25-1.01.5-1.97.56-2.98.12-.78.31-.92,1.43-.87,1.18.09,3.79-.09,4.96-.09M152.62,57.39c1.99-.32,3.91-.05,5.83-.37,0,.46.12.87.06,1.29-.12.55-.12,1.06-.12,1.61-.06.32.12.69,0,1.01-.19.41,0,.73-.06,1.1-.06.87,0,1.74-.06,2.62,0,.64.06,1.33,0,1.97-.06.46-.12.92-.12,1.38,0,1.01-.06,2.02,0,3.03.06.55-.12,1.06.06,1.56.06.41.12.78.06,1.15-.12.96.06,1.97,0,2.98-.06,1.33-.06,2.71-.25,4.04,0,.18.12.37.12.41-.43.83-.19,1.65-.19,2.43,0,.83-.19,1.65-.19,2.43.06.83.06,1.65-.06,2.48.62.69-.12,1.65.5,2.34,1.06.46,2.11.37,3.16.18l.37.18c.25-.05.5-.18.74-.09.68.18,1.3.09,1.92-.05.56-.09,1.18.18,1.55-.32-.37-.73-.19-1.51-.25-2.3-.06-.73-.12-1.52.06-2.34-.31-.14-.25-.41-.12-.64.06-.18.12-.28.06-.46-.12-.46,0-.96-.06-1.42-.12-.55.19-1.06-.12-1.56.31-.23-.19-.6.19-.78-.19-.92-.25-1.84-.25-2.71,0-.46.12-.92.06-1.42,0-.32-.12-.73,0-1.06.12-.41.06-.78.06-1.19,0-.69-.06-1.38.12-1.84.06-1.74-.31-3.31-.19-4.91,0-.05-.12-.14-.19-.18.06-.09.25-.18.25-.28-.12-.69.19-1.42.25-2.11,0-.37.06-.78-.12-1.1-.19-.32-.12-.55.06-.78l-.37-.14c.12-.09.25-.18.25-.37-.06-.55,0-1.15-.06-1.75-.12-.69,0-1.33.12-2.02.12-.6.12-1.19-.06-1.84.68-.41,1.43-.09,2.17-.23.62-.09,1.3-.28,2.05-.14.62.09,1.05,0,1.8,0,.25-.09.68.05.74-.18-.06-.83-.12-1.61-.06-2.43.06-.64-.12-1.24.12-1.88.12-.28.12-.78-.56-1.01-.81.05-1.61.05-2.42.05-1.3.05-2.54.05-3.85.05-1.86,0-3.78.23-5.65.18-.43-.05-.87-.14-1.18.14l-.62-.23c-.12.05-.19.18-.43.18-.68-.14-1.37-.05-2.05-.14-.5-.05-.74.18-1.12.18h-2.98c-.06.28-.19.51.12.83.25.23-.06.64,0,.96.19.69.25,1.38.06,2.02-.25.73.12,1.15.81,1.47M141.57,57.9l.25.37c.19,1.1.5,2.2.56,3.31v4.78l-1.24,1.33-1.55.46c-.56,0-1.18.05-1.74-.05-.43,0-.87-.14-1.3-.23-.31-.32,0-.69-.19-1.01-.12-.32,0-.6,0-.87.06-.14.06-.28,0-.37-.31-.46-.12-.92-.12-1.38,0-.41-.06-.83.06-1.24.12-.46.12-.96.12-1.42,0-.87.19-1.7.19-2.57v-.64c.06-.46-.12-.92.25-1.24,1.18.23,2.3.05,3.54.14l1.18.64ZM128.98,52.39c.19.96.19,1.88.19,2.75,0,.64-.06,1.33-.06,1.97-.06.6,0,1.19,0,1.79,0,.64-.12,1.33,0,1.93.19.64-.06,1.29.06,1.93.06.23-.06.55.06.73.37.73.12,1.47.06,2.16-.06.28-.12.51-.12.78,0,1.24-.06,2.48-.06,3.77,0,.87.06,1.79.06,2.71,0,.96-.12,1.88,0,2.85.12.92-.12,1.79-.06,2.66.06.6-.19,1.19-.12,1.79,0,.41.06.83,0,1.29-.06.46.06.92.06,1.38.06,1.56.06,3.12,0,4.68,0,.55,0,1.1-.12,1.65,0,.78-.25,1.38.43,2.02,2.48-.05,4.9.18,7.38-.14,0-.18.06-.32.06-.46,0-.55-.06-1.1,0-1.7.06-.6-.43-1.15-.19-1.74-.19-.87-.06-1.7-.06-2.57,0-.78-.06-1.56-.06-2.3-.06-.83.12-1.61,0-2.43-.06-.83.12-1.7.06-2.53-.12-.73-.06-1.52-.06-2.3,0-.41-.06-.87.12-1.47.43.69.93,1.29,1.18,1.88.43,1.06.68,2.16,1.12,3.21.74,1.74.99,3.54,1.74,5.28.12.41.19.83.37,1.24.37.78.31,1.61.74,2.39.43.83,1.12,2.11,1.12,3.03,0,.18.19.32.31.46,1.43.28,2.92.05,4.34.18.5.05.99-.09,1.55-.09.5,0,.99.14,1.49.18l.43-.28c-.31-.96-.99-2.3-1.49-3.17-.25-.41-.43-.78-.56-1.24-.19-.73-.5-1.47-.87-2.2-.25-.46-.43-.87-.56-1.33-.5-1.33-.99-2.66-1.61-3.95-.93-1.93-1.49-3.9-2.11-5.83-.06-.14.06-.28.06-.41,1.12-.32,2.23-.51,3.04-1.19.68-.64,1.43-1.24,1.99-1.97.56-.78.37-1.7.74-2.43-.19-.37-.31-.73-.06-1.06.12-.28.12-.6,0-.87-.37-.73-.31-1.47-.12-2.2.19-.69.19-1.33.25-2.02,0-1.19,0-2.34-.06-3.49,0-.87-.25-1.7-.56-2.53-.31-.78-1.06-1.38-1.61-1.97-1.06-.55-2.17-1.01-3.29-1.33-.5-.05-.87-.05-1.24.09-1.49-.46-3.04-.05-4.53-.14-1.43-.09-2.92-.05-4.34-.05s-2.98,0-4.65-.05c-.19.09-.31.32-.43.64M117.19,86.04c-.37.18-.62.46-.93.69-.68.41-1.3.32-1.99.23-.93-.14-1.61-.51-2.42-1.1-.06-.14-.06-.46-.06-.78.06-.64.06-1.29-.06-1.93-.06-.46,0-1.01.06-1.47.06-1.19.06-2.34,0-3.54-.06-.05-.19-.05-.25-.05-.19-.23.31-.14.31-.32-.43-.87-.19-1.79-.19-2.66.06-.92.31-1.84.06-2.75-.25-.92.06-2.02.06-2.98v-5.83c0-.51.31-1.38.06-1.88-.12-.32-.06-.73,0-1.1,0-.18.06-.32.12-.51-.25-.6-.12-1.29-.12-1.93,0-.09.06-.18,0-.32-.12-.6.25-1.01.99-1.19.5-.14.93-.32,1.3-.46.87.09,1.61.23,2.48.18.31.14.43.46.93.41-.06.14-.19.23-.12.32.43.69.31,1.47.25,2.2-.12.96-.06,1.93-.06,2.94-.06,1.19-.06,2.39,0,3.58.06,1.61-.06,3.21,0,4.82,0,1.38,0,2.75-.06,4.13,0,1.24.06,2.53.12,3.81,0,.28-.06.6-.12.87-.06.09-.12.18-.12.32.06.96-.06,1.93,0,2.89.12.92-.06,1.74-.12,2.62,0,.23,0,.51-.12.78M124.82,66.53c.5-.23.31-.55.25-.83-.06-.6-.19-1.24-.12-1.88,0-.18.12-.41.06-.6-.31-1.33,0-2.71.06-4.04,0-.51.06-1.06-.06-1.56-.12-.87-.12-1.7-.56-2.53-.56-1.15-1.55-1.88-2.79-2.53-.62-.32-1.3-.51-1.99-.78-.43-.18-.81-.41-1.43-.46-.74-.05-1.55-.09-2.36-.18-.56-.09-1.12-.28-1.68-.14-.74.18-1.49.28-2.11.23-.93.41-1.8.73-2.67,1.01-2.11.69-3.66,1.7-4.53,3.31-.25.41-.25.87-.81,1.19.37.6.19,1.19.25,1.79,0,.28-.19.55-.19.83l-.19,3.54c0,.73-.06,1.52,0,2.25.06.51,0,1.01.37,1.52-.25.14-.37.32-.37.55.06.55.06,1.1.06,1.61s0,1.06-.19,1.56c-.12.46-.12.92-.06,1.38.19,1.01.25,2.02.25,3.03-.06,1.33-.12,2.71,0,4.04l.12,3.67c0,.6,0,1.19.06,1.79.06.32,0,.69,0,1.06-.12.6,0,1.33.25,1.93.56,1.29,1.37,2.16,2.73,2.98.68.41,1.49.55,2.23.92h.93c.25,0,.31.23.56.28,1.86.18,3.66.41,5.58.37,2.3-.05,4.28-.6,6.02-1.65.37-.23.74-.37.74-.73,0-.09.06-.05.12-.09.56-.14.81-.51.93-.83.25-.51.43-1.06.62-1.61.19-.83.12-1.7.12-2.53,0-.51-.25-.96-.06-1.47.19-.41.12-.78.06-1.19-.19-.92-.19-1.84-.06-2.75.06-.64.06-1.29,0-1.93,0-.69-.12-1.42,0-2.16.06-.73-.06-1.47-.06-2.2.06-.83-.25-1.65-.06-2.43,0-.18.06-.37.06-.51,0-.96-.12-1.93.19-2.89,0-.18-.19-.23-.31-.32M87.59,60.47c.74-.28.5-2.66.5-3.26.56,0,.99-.05,1.49.09.37.05.81.05,1.12,0,.87-.14,1.43.14,1.99.51l.43.28c.12.55.37,1.1.43,1.61.12.55-.19,1.06,0,1.56.06.05.12.14.12.23v.23c-.06.92-.37,1.97-.06,2.8.19.51-.06,1.06.06,1.61,0,.09,0,.18.06.28-.43.83-1.43,1.24-2.3,1.79-.74-.18-1.55-.18-2.42-.05-.31-.09-.56-.28-1.05-.23.31-.51-.25-.96-.06-1.42.19-.32.06-.96.12-1.29,0-.14-.06-.28-.06-.41-.31-1.19,0-2.48-.06-3.67,0-.28-.06-.55-.31-.64M80.02,52.25c.56.6.25,1.29.31,1.93,0,.18.19.41.06.64-.37.46-.25.96-.25,1.42,0,1.06.31,2.11.25,3.21,0,1.1.12,2.2.06,3.31-.06,1.38,0,2.76,0,4.13v2.39c0,1.7-.31,3.4-.25,5.1,0,.92.25,1.88-.12,2.8.31,1.42-.06,2.89.12,4.32.06.69-.12,1.38-.12,2.07-.06.87-.06,1.75,0,2.57,0,.87-.25,1.7-.06,2.53.12.55,0,1.06.06,1.61,0,.14.06.28.06.32l.37.37c1.18.23,2.3.05,3.35.18,1.18.14,2.42.05,3.54.05.31-.18.43-.32.56-.6.06-.41-.06-.78-.06-1.19-.06-1.15.19-2.34-.06-3.54-.06-.23.25-.32.37-.41,0-.64-.19-1.19-.06-1.74.12-.83.12-1.65,0-2.53-.06-.64-.25-1.24-.25-1.88.06-.51.19-1.01.19-1.52.06-.32,0-.6.37-.83-.25-.28-.31-.51-.25-.83.12-.28.12-.55.06-.87-.06-.55,0-1.15,0-1.79,2.05.05,3.91.05,5.83-.23.87-.14,1.86-.28,2.61-.69,1.06-.6,1.99-1.33,2.73-2.16,1.3-1.47,1.55-3.17,1.43-4.87-.12-.83-.12-1.65-.06-2.48,0-1.19.19-2.39.12-3.58,0-.69-.19-1.38-.25-2.07-.12-1.19-.74-2.25-1.43-3.26-.43-.55-1.18-.92-1.8-1.38-.5-.37-1.18-.6-1.74-.69-1.12-.14-2.17-.41-3.35-.18-.81.14-1.68.05-2.48.05-1.3-.05-2.61-.28-3.91-.18-.25.05-.56.09-.87.05-1.49-.05-2.98-.05-4.47,0-.19.14-.43.28-.62.46M57.87,57.39c1.99-.32,3.91-.05,5.83-.37,0,.46.12.87.06,1.29-.12.55-.12,1.06-.12,1.61-.06.32.12.69,0,1.01-.19.41,0,.73-.06,1.1-.06.87,0,1.74-.06,2.62,0,.64.06,1.33,0,1.97-.06.46-.12.92-.12,1.38,0,1.01-.06,2.02,0,3.03.06.55-.12,1.06.06,1.56.06.41.12.78.06,1.15-.12.96.06,1.97,0,2.98-.06,1.33-.06,2.71-.25,4.04,0,.18.12.37.12.41-.43.83-.19,1.65-.19,2.43,0,.83-.19,1.65-.19,2.43.06.83.06,1.65-.06,2.48.62.69-.12,1.65.5,2.34,1.05.46,2.11.37,3.16.18l.37.18c.25-.05.5-.18.74-.09.68.18,1.3.09,1.92-.05.56-.09,1.18.18,1.55-.32-.37-.73-.19-1.51-.25-2.3-.06-.73-.12-1.52.06-2.34-.31-.14-.25-.41-.12-.64.06-.18.12-.28.06-.46-.12-.46,0-.96-.06-1.42-.12-.55.19-1.06-.12-1.56.31-.23-.19-.6.19-.78-.19-.92-.25-1.84-.25-2.71,0-.46.12-.92.06-1.42,0-.32-.12-.73,0-1.06.12-.41.06-.78.06-1.19,0-.69-.06-1.38.12-1.84.06-1.74-.31-3.31-.19-4.91,0-.05-.12-.14-.19-.18.06-.09.25-.18.25-.28-.12-.69.19-1.42.25-2.11,0-.37.06-.78-.12-1.1s-.12-.55.06-.78l-.37-.14c.12-.09.25-.18.25-.37-.06-.55,0-1.15-.06-1.75-.12-.69,0-1.33.12-2.02.12-.6.12-1.19-.06-1.84.68-.41,1.43-.09,2.17-.23.62-.09,1.3-.28,2.05-.14.62.09,1.05,0,1.8,0,.25-.09.68.05.74-.18-.06-.83-.12-1.61-.06-2.43.06-.64-.12-1.24.12-1.88.12-.28.12-.78-.56-1.01-.81.05-1.61.05-2.42.05-1.3.05-2.54.05-3.85.05-1.86,0-3.78.23-5.65.18-.43-.05-.87-.14-1.18.14l-.62-.23c-.12.05-.19.18-.43.18-.68-.14-1.37-.05-2.05-.14-.5-.05-.74.18-1.12.18h-2.98c-.06.28-.19.51.12.83.25.23-.06.64,0,.96.19.69.25,1.38.06,2.02-.25.73.12,1.15.81,1.47M46.82,57.9l.25.37c.19,1.1.5,2.2.56,3.31v4.78l-1.24,1.33-1.55.46c-.56,0-1.18.05-1.74-.05-.43,0-.87-.14-1.3-.23-.31-.32,0-.69-.19-1.01-.12-.32,0-.6,0-.87.06-.14.06-.28,0-.37-.31-.46-.12-.92-.12-1.38,0-.41-.06-.83.06-1.24.12-.46.12-.96.12-1.42,0-.87.19-1.7.19-2.57v-.64c.06-.46-.12-.92.25-1.24,1.18.23,2.3.05,3.54.14l1.18.64ZM34.23,52.39c.19.96.19,1.88.19,2.75,0,.64-.06,1.33-.06,1.97-.06.6,0,1.19,0,1.79,0,.64-.12,1.33,0,1.93.19.64-.06,1.29.06,1.93.06.23-.06.55.06.73.37.73.12,1.47.06,2.16-.06.28-.12.51-.12.78,0,1.24-.06,2.48-.06,3.77,0,.87.06,1.79.06,2.71,0,.96-.12,1.88,0,2.85.12.92-.12,1.79-.06,2.66.06.6-.19,1.19-.12,1.79,0,.41.06.83,0,1.29-.06.46.06.92.06,1.38.06,1.56.06,3.12,0,4.68,0,.55,0,1.1-.12,1.65,0,.78-.25,1.38.43,2.02,2.48-.05,4.9.18,7.38-.14,0-.18.06-.32.06-.46,0-.55-.06-1.1,0-1.7.06-.6-.43-1.15-.19-1.74-.19-.87-.06-1.7-.06-2.57,0-.78-.06-1.56-.06-2.3-.06-.83.12-1.61,0-2.43-.06-.83.12-1.7.06-2.53-.12-.73-.06-1.52-.06-2.3,0-.41-.06-.87.12-1.47.43.69.93,1.29,1.18,1.88.43,1.06.68,2.16,1.12,3.21.74,1.74.99,3.54,1.74,5.28.12.41.19.83.37,1.24.37.78.31,1.61.74,2.39.43.83,1.12,2.11,1.12,3.03,0,.18.19.32.31.46,1.43.28,2.92.05,4.34.18.5.05.99-.09,1.55-.09.5,0,.99.14,1.49.18l.43-.28c-.31-.96-.99-2.3-1.49-3.17-.25-.41-.43-.78-.56-1.24-.19-.73-.5-1.47-.87-2.2-.25-.46-.43-.87-.56-1.33-.5-1.33-.99-2.66-1.61-3.95-.93-1.93-1.49-3.9-2.11-5.83-.06-.14.06-.28.06-.41,1.12-.32,2.23-.51,3.04-1.19.68-.64,1.43-1.24,1.99-1.97.56-.78.37-1.7.74-2.43-.19-.37-.31-.73-.06-1.06.12-.28.12-.6,0-.87-.37-.73-.31-1.47-.12-2.2.19-.69.19-1.33.25-2.02,0-1.19,0-2.34-.06-3.49,0-.87-.25-1.7-.56-2.53-.31-.78-1.05-1.38-1.61-1.97-1.05-.55-2.17-1.01-3.29-1.33-.5-.05-.87-.05-1.24.09-1.49-.46-3.04-.05-4.53-.14-1.43-.09-2.92-.05-4.34-.05s-2.98,0-4.65-.05c-.19.09-.31.32-.43.64M22.19,80.07c-1.18.32-3.85.09-5.09.14.12-.73.5-1.47.5-2.2,0-.28-.19-.55,0-.87.19-.23.19-.51,0-.78v-.14c.37-.87.62-4.68.87-5.6.12-.6.31-2.94.62-3.58-.06-.37.12-.64.06-.96l.25-1.84c0-.18.06-.28.19-.41.12,0,.19,0,.25.09.12.37.37.87.37,1.42.06.09.06,1.06.12,1.19.12.23.37,2.89.37,3.17.25.92.31,1.29.25,1.88.19.6.56,3.49.68,4.13,0,.09-.06.28.06.37.19.14,0,.28.06.37.25,1.19.31,2.39.43,3.63M22.75,85.4c.19.37.19.69.31,1.01.12.51.12.96.25,1.47.19.37.37.78.25,1.15-.12.23-.06.46,0,.69l.19.69q0,.69.99.55c.06,0,.19.09.25.09l1.68-.09c.87-.05,1.68.18,2.54,0h.06c.68.28,1.49-.18,2.11.18.12.05.37-.05.5-.05.43,0,.12-.64.06-1.01-.25-.37-.25-.69-.31-1.15-.12-.92-.43-1.84-.62-2.75l-.5-2.8c-.06-.46,0-.87-.25-1.33-.19-.46-.31-.87-.25-1.33,0-.28,0-.55-.12-.83-.19-.55-.31-1.1-.31-1.65,0-.83-.31-1.61-.43-2.39l-.37-1.61c-.12-.64-.12-1.29-.31-1.93-.12-.41-.19-.87-.25-1.33-.06-.73-.06-1.47-.31-2.2-.12-.18-.12-.37-.19-.55-.12-1.1-.25-2.25-.5-3.35-.31-1.01-.31-2.02-.5-3.03-.06-.55-.25-1.1-.19-1.65,0-1.01-.43-1.97-.56-2.98-.37-.14-.12-.51-.25-.73-.19-.23-.12-.55-.19-.83-.06-.73-.12-1.51-.25-2.25-.06-.28-.06-.78-.19-1.01-.19-.23-.31-.18-.56-.37-.19-.14-1.3-.09-1.49-.09-.56,0-1.12,0-1.68-.09s-1.18-.09-1.74.09c-.12.05-.37.05-.56.05-.56.05-1.12-.09-1.74-.05-.43.05-1.3,0-1.68-.14-.25-.05-.37.05-.5.14-.12.14-.25.32-.31.51-.12.55-.37,1.15-.5,1.65-.12,1.1-.43,3.08-.31,3.26-.19.28-.62,1.29-.62,1.97,0,.73-.12,1.15-.25,1.75-.06.46-.12,1.01-.12,1.47-.19,1.65-.68,1.79-.5,2.76.12.37-.31.87-.43,1.29-.25.78-.25,1.61-.37,2.39-.06.32,0,.6-.19.87-.12.23-.19.46-.19.69,0,.96-.25,1.88-.37,2.85-.12,1.01-.43,1.97-.43,2.98.06.18,0,.37-.06.55-.5.96-.5,2.02-.68,3.03l-.25,1.29c-.19,1.06-.62,2.02-.81,3.08-.06.64-.12,1.29-.31,1.93-.19.46-.25.96-.37,1.47-.12.64-.12,1.24-.43,1.84-.19.46-.25,1.33-.12,1.51,0,.14.62.32,1.12.23.12-.05.31-.05.5,0,1.3.09,2.61.09,3.91,0,.56-.09,1.12-.23,1.68-.09.37.09.56-.09.62-.28.19-.51.31-1.06.43-1.56.25-1.01.5-1.97.56-2.98.12-.78.31-.92,1.43-.87,1.18.09,3.78-.09,4.96-.09"
       id="path2" />
  </g>
</svg>
