<?xml version="1.0" encoding="UTF-8" standalone="no"?>
<svg
   id="Lager_1"
   data-name="Lager 1"
   version="1.1"
   viewBox="0 0 283.46 283.46"
   sodipodi:docname="Artportable.Knapp.svgz"
   xmlns:inkscape="http://www.inkscape.org/namespaces/inkscape"
   xmlns:sodipodi="http://sodipodi.sourceforge.net/DTD/sodipodi-0.dtd"
   xmlns="http://www.w3.org/2000/svg"
   xmlns:svg="http://www.w3.org/2000/svg">
  <sodipodi:namedview
     id="namedview20"
     pagecolor="#ffffff"
     bordercolor="#000000"
     borderopacity="0.25"
     inkscape:showpageshadow="2"
     inkscape:pageopacity="0.0"
     inkscape:pagecheckerboard="0"
     inkscape:deskcolor="#d1d1d1" />
  <defs
     id="defs7">
    <style
       id="style2">
      .cls-1 {
        fill: #cd1719;
      }

      .cls-1, .cls-2, .cls-3 {
        stroke-width: 0px;
      }

      .cls-4 {
        clip-path: url(#clippath);
      }

      .cls-2 {
        fill: none;
      }

      .cls-3 {
        fill: #fff;
      }
    </style>
    <clipPath
       id="clippath">
      <rect
         class="cls-2"
         x="12.32"
         y="6.54"
         width="259.77"
         height="270.11"
         id="rect4" />
    </clipPath>
  </defs>
  <g
     class="cls-4"
     clip-path="url(#clippath)"
     id="g17">
    <g
       id="g15">
      <path
         class="cls-1"
         d="M142.2,276.65c71.73,0,129.88-59.27,129.88-132.38S213.94,11.89,142.2,11.89,12.32,71.15,12.32,144.27s58.15,132.38,129.88,132.38"
         id="path9" />
      <path
         class="cls-3"
         d="M177.92,111.52c2.71-1,1.8-9.68,1.8-11.85,2.03,0,3.61-.17,5.41.33,1.35.17,2.93.17,4.06,0,3.16-.5,5.19.5,7.22,1.84l1.58,1c.45,2,1.35,4.01,1.58,5.84.45,2-.68,3.84,0,5.67.22.17.45.5.45.83v.84c-.23,3.34-1.35,7.18-.23,10.18.68,1.83-.22,3.84.23,5.84,0,.33,0,.67.23,1-1.58,3-5.19,4.51-8.34,6.51-2.71-.67-5.64-.67-8.79-.17-1.13-.33-2.03-1-3.83-.83,1.13-1.84-.9-3.5-.23-5.17.68-1.17.23-3.51.45-4.67,0-.5-.22-1-.22-1.5-1.13-4.34,0-9.01-.23-13.35,0-1-.23-2-1.13-2.34M150.41,81.65c2.03,2.17.9,4.67,1.13,7.01,0,.67.68,1.5.22,2.34-1.35,1.67-.9,3.5-.9,5.17,0,3.84,1.13,7.68.9,11.68,0,4.01.45,8.01.23,12.02-.23,5.01,0,10.01,0,15.02v8.68c0,6.17-1.13,12.35-.9,18.52,0,3.34.9,6.84-.45,10.18,1.13,5.17-.23,10.51.45,15.69.22,2.5-.45,5.01-.45,7.51-.23,3.17-.23,6.34,0,9.35,0,3.17-.9,6.17-.23,9.18.45,2,0,3.84.23,5.84,0,.5.23,1,.23,1.17l1.35,1.33c4.29.83,8.35.17,12.18.67,4.28.5,8.8.17,12.85.17,1.13-.67,1.58-1.17,2.03-2.17.22-1.5-.23-2.84-.23-4.34-.23-4.17.68-8.51-.23-12.85-.23-.83.9-1.17,1.35-1.5,0-2.34-.68-4.34-.23-6.34.45-3,.45-6.01,0-9.18-.22-2.34-.9-4.51-.9-6.84.23-1.84.68-3.67.68-5.51.22-1.17,0-2.17,1.35-3-.9-1-1.13-1.84-.9-3,.45-1,.45-2,.23-3.17-.23-2,0-4.17,0-6.51,7.44.17,14.21.17,21.2-.83,3.16-.5,6.77-1,9.47-2.5,3.83-2.17,7.22-4.84,9.92-7.84,4.74-5.34,5.64-11.51,5.19-17.69-.45-3-.45-6.01-.23-9.01,0-4.34.68-8.68.45-13.02,0-2.5-.68-5.01-.9-7.51-.45-4.34-2.71-8.18-5.19-11.85-1.58-2-4.28-3.34-6.54-5.01-1.8-1.34-4.28-2.17-6.31-2.5-4.06-.5-7.89-1.5-12.18-.67-2.93.5-6.09.17-9.02.17-4.74-.17-9.47-1-14.21-.67-.9.17-2.03.33-3.16.17-5.41-.17-10.82-.17-16.24,0-.68.5-1.58,1-2.26,1.67M104.4,152.13c-4.29,1.17-13.98.33-18.49.5.45-2.67,1.8-5.34,1.8-8.01,0-1-.68-2,0-3.17.68-.84.68-1.84,0-2.84v-.5c1.35-3.17,2.26-17.02,3.16-20.36.45-2.17,1.13-10.68,2.25-13.02-.22-1.34.45-2.34.23-3.51l.9-6.68c0-.67.22-1,.68-1.5.45,0,.68,0,.9.33.45,1.34,1.35,3.17,1.35,5.17.22.33.22,3.84.45,4.34.45.84,1.35,10.51,1.35,11.51.9,3.34,1.13,4.67.9,6.84.68,2.17,2.03,12.68,2.48,15.02,0,.33-.23,1,.22,1.33.68.5,0,1,.23,1.34.9,4.34,1.13,8.68,1.58,13.18M106.43,171.49c.68,1.33.68,2.5,1.13,3.67.45,1.84.45,3.51.9,5.34.68,1.33,1.35,2.84.9,4.17-.45.83-.23,1.67,0,2.5l.68,2.5c0,1.67,1.2,2.33,3.61,2,.22,0,.68.33.9.33l6.09-.33c3.16-.17,6.09.67,9.25,0h.23c2.48,1,5.41-.67,7.67.67.45.17,1.35-.17,1.81-.17,1.58,0,.45-2.34.22-3.67-.9-1.34-.9-2.5-1.13-4.17-.45-3.34-1.58-6.67-2.26-10.01l-1.8-10.18c-.22-1.67,0-3.17-.9-4.84-.68-1.67-1.13-3.17-.9-4.84,0-1,0-2-.45-3-.68-2-1.13-4.01-1.13-6.01,0-3-1.13-5.84-1.58-8.68l-1.35-5.84c-.45-2.34-.45-4.67-1.13-7.01-.45-1.5-.68-3.17-.9-4.84-.23-2.67-.23-5.34-1.13-8.01-.45-.67-.45-1.33-.68-2-.45-4.01-.9-8.18-1.81-12.18-1.13-3.67-1.13-7.34-1.8-11.01-.22-2-.9-4-.68-6.01,0-3.67-1.58-7.18-2.03-10.85-1.35-.5-.45-1.84-.9-2.67-.68-.83-.45-2-.68-3-.23-2.67-.45-5.51-.9-8.18-.22-1-.22-2.84-.68-3.67-.68-.83-1.13-.67-2.03-1.33-.68-.5-4.74-.33-5.41-.33-2.03,0-4.06,0-6.09-.33s-4.29-.33-6.32.33c-.45.17-1.35.17-2.03.17-2.03.17-4.06-.33-6.31-.17-1.58.17-4.74,0-6.09-.5-.9-.17-1.35.17-1.8.5-.45.5-.9,1.17-1.13,1.84-.45,2-1.35,4.17-1.8,6.01-.45,4.01-1.58,11.18-1.13,11.85-.68,1-2.26,4.67-2.26,7.18,0,2.67-.45,4.17-.9,6.34-.23,1.67-.45,3.67-.45,5.34-.68,6.01-2.48,6.51-1.8,10.01.45,1.33-1.13,3.17-1.58,4.67-.9,2.84-.9,5.84-1.35,8.68-.23,1.17,0,2.17-.68,3.17-.45.83-.68,1.67-.68,2.5,0,3.51-.9,6.84-1.35,10.35-.45,3.67-1.58,7.18-1.58,10.85.23.67,0,1.33-.23,2-1.8,3.51-1.8,7.34-2.48,11.02l-.9,4.67c-.68,3.84-2.26,7.34-2.93,11.18-.23,2.34-.45,4.67-1.13,7.01-.68,1.67-.9,3.51-1.35,5.34-.45,2.34-.45,4.51-1.58,6.68-.68,1.67-.9,4.84-.45,5.51,0,.5,2.26,1.17,4.06.83.45-.17,1.13-.17,1.8,0,4.74.33,9.47.33,14.21,0,2.03-.33,4.06-.83,6.09-.33,1.35.33,2.03-.33,2.26-1,.68-1.84,1.13-3.84,1.58-5.67.9-3.67,1.8-7.18,2.03-10.85.45-2.84,1.13-3.34,5.19-3.17,4.29.33,13.76-.33,18.04-.33"
         id="path11" />
      <path
         class="cls-3"
         d="M216.94,231.05c11.97,0,21.68-9.89,21.68-22.09s-9.71-22.09-21.68-22.09-21.68,9.89-21.68,22.09,9.71,22.09,21.68,22.09"
         id="path13" />
    </g>
  </g>
</svg>
