<?xml version="1.0" encoding="UTF-8" standalone="no"?>
<!-- Created with Inkscape (http://www.inkscape.org/) -->

<svg
   xmlns:dc="http://purl.org/dc/elements/1.1/"
   xmlns:cc="http://creativecommons.org/ns#"
   xmlns:rdf="http://www.w3.org/1999/02/22-rdf-syntax-ns#"
   xmlns:svg="http://www.w3.org/2000/svg"
   xmlns="http://www.w3.org/2000/svg"
   xmlns:sodipodi="http://sodipodi.sourceforge.net/DTD/sodipodi-0.dtd"
   xmlns:inkscape="http://www.inkscape.org/namespaces/inkscape"
   version="1.1"
   id="svg3713"
   xml:space="preserve"
   width="755.90533"
   height="99.799599"
   viewBox="0 0 755.90533 99.799599"
   sodipodi:docname="Artportable_Logotyp_Black.svg"
   inkscape:version="0.92.4 (5da689c313, 2019-01-14)"><metadata
     id="metadata3719"><rdf:RDF><cc:Work
         rdf:about=""><dc:format>image/svg+xml</dc:format><dc:type
           rdf:resource="http://purl.org/dc/dcmitype/StillImage" /><dc:title></dc:title></cc:Work></rdf:RDF></metadata><defs
     id="defs3717"><clipPath
       clipPathUnits="userSpaceOnUse"
       id="clipPath3729"><path
         d="M 0,74.85 H 566.929 V 0 H 0 Z"
         id="path3727"
         inkscape:connector-curvature="0" /></clipPath></defs><sodipodi:namedview
     pagecolor="#ffffff"
     bordercolor="#666666"
     borderopacity="1"
     objecttolerance="10"
     gridtolerance="10"
     guidetolerance="10"
     inkscape:pageopacity="0"
     inkscape:pageshadow="2"
     inkscape:window-width="2560"
     inkscape:window-height="1377"
     id="namedview3715"
     showgrid="false"
     inkscape:zoom="2.7847402"
     inkscape:cx="377.95267"
     inkscape:cy="49.899799"
     inkscape:window-x="1912"
     inkscape:window-y="-8"
     inkscape:window-maximized="1"
     inkscape:current-layer="g3721" /><g
     id="g3721"
     inkscape:groupmode="layer"
     inkscape:label="Artportable_Logotyp_Black"
     transform="matrix(1.3333333,0,0,-1.3333333,0,99.7996)"><g
       id="g3723"><g
         id="g3725"
         clip-path="url(#clipPath3729)"><g
           id="g3731"
           transform="translate(550.1848,41.0607)"><path
             d="m 0,0 c -2.008,0 -3.636,-1.628 -3.636,-3.636 0,-2.008 1.628,-3.635 3.636,-3.635 h 11.522 c 2.009,0 3.636,1.627 3.636,3.635 0,2.008 -1.627,3.636 -3.636,3.636 z m -473.228,-6.187 c 7.807,2.688 13.434,10.103 13.434,18.812 0,10.97 -8.925,19.895 -19.895,19.895 -2.008,0 -3.636,-1.628 -3.636,-3.637 0,-2.008 1.628,-3.635 3.636,-3.635 6.96,0 12.623,-5.663 12.623,-12.623 0,-6.961 -5.663,-12.624 -12.623,-12.624 -0.029,0 -0.056,-0.007 -0.084,-0.008 -0.138,-0.003 -0.274,-0.023 -0.412,-0.042 -0.102,-0.013 -0.206,-0.022 -0.305,-0.045 -0.119,-0.027 -0.234,-0.069 -0.35,-0.109 -0.112,-0.037 -0.224,-0.069 -0.33,-0.117 -0.098,-0.044 -0.19,-0.102 -0.285,-0.155 -0.117,-0.065 -0.233,-0.129 -0.341,-0.205 -0.024,-0.018 -0.051,-0.028 -0.075,-0.046 -0.065,-0.048 -0.114,-0.109 -0.175,-0.161 -0.098,-0.084 -0.196,-0.168 -0.285,-0.262 -0.081,-0.086 -0.151,-0.178 -0.223,-0.27 -0.072,-0.094 -0.143,-0.186 -0.206,-0.286 -0.064,-0.101 -0.116,-0.206 -0.169,-0.312 -0.052,-0.104 -0.104,-0.208 -0.146,-0.318 -0.043,-0.112 -0.074,-0.226 -0.106,-0.341 -0.03,-0.111 -0.061,-0.22 -0.081,-0.335 -0.023,-0.131 -0.031,-0.261 -0.04,-0.393 -0.005,-0.077 -0.023,-0.151 -0.023,-0.23 0,-0.03 0.008,-0.057 0.009,-0.086 0.002,-0.136 0.022,-0.271 0.041,-0.406 0.014,-0.104 0.023,-0.209 0.045,-0.31 0.027,-0.118 0.069,-0.232 0.108,-0.348 0.037,-0.112 0.071,-0.225 0.119,-0.332 0.043,-0.098 0.101,-0.19 0.154,-0.284 0.065,-0.117 0.128,-0.233 0.205,-0.341 0.018,-0.025 0.028,-0.052 0.046,-0.075 l 24.397,-32.518 c 0.715,-0.952 1.806,-1.454 2.911,-1.454 0.76,0 1.526,0.236 2.18,0.727 1.606,1.206 1.931,3.485 0.726,5.091 z m 217.42,0 c 7.807,2.688 13.434,10.103 13.434,18.812 0,10.97 -8.924,19.895 -19.895,19.895 -2.008,0 -3.636,-1.628 -3.636,-3.637 0,-2.008 1.628,-3.635 3.636,-3.635 6.96,0 12.623,-5.663 12.623,-12.623 0,-6.961 -5.663,-12.624 -12.623,-12.624 -0.029,0 -0.056,-0.007 -0.086,-0.008 -0.135,-0.003 -0.27,-0.023 -0.406,-0.041 -0.103,-0.014 -0.209,-0.023 -0.309,-0.046 -0.119,-0.027 -0.232,-0.069 -0.347,-0.107 -0.112,-0.038 -0.227,-0.071 -0.334,-0.119 -0.097,-0.044 -0.188,-0.101 -0.282,-0.154 -0.117,-0.066 -0.235,-0.129 -0.343,-0.207 -0.024,-0.017 -0.051,-0.027 -0.075,-0.045 -0.065,-0.048 -0.113,-0.108 -0.174,-0.16 -0.099,-0.085 -0.196,-0.169 -0.285,-0.263 -0.081,-0.086 -0.152,-0.177 -0.223,-0.269 -0.072,-0.094 -0.143,-0.187 -0.207,-0.288 -0.063,-0.1 -0.116,-0.204 -0.168,-0.309 -0.053,-0.105 -0.104,-0.21 -0.147,-0.321 -0.043,-0.111 -0.074,-0.224 -0.105,-0.338 -0.031,-0.112 -0.062,-0.222 -0.082,-0.339 -0.023,-0.129 -0.031,-0.258 -0.039,-0.388 -0.005,-0.079 -0.024,-0.154 -0.024,-0.233 0,-0.03 0.008,-0.057 0.009,-0.087 0.003,-0.135 0.022,-0.269 0.041,-0.404 0.014,-0.104 0.022,-0.21 0.045,-0.312 0.027,-0.117 0.069,-0.23 0.108,-0.346 0.038,-0.113 0.071,-0.226 0.119,-0.333 0.044,-0.098 0.102,-0.19 0.153,-0.283 0.066,-0.118 0.129,-0.234 0.206,-0.342 0.018,-0.025 0.029,-0.052 0.046,-0.075 l 24.397,-32.518 c 0.714,-0.952 1.805,-1.454 2.912,-1.454 0.759,0 1.524,0.236 2.179,0.727 1.605,1.206 1.931,3.485 0.726,5.091 z M -376.554,32.52 c -2.008,0 -3.635,-1.628 -3.635,-3.637 0,-2.008 1.627,-3.635 3.635,-3.635 6.961,0 12.623,-5.663 12.623,-12.623 0,-6.961 -5.662,-12.624 -12.623,-12.624 -2.008,0 -3.635,-1.627 -3.635,-3.635 0,-2.009 1.627,-3.637 3.635,-3.637 10.97,0 19.895,8.925 19.895,19.896 0,10.97 -8.925,19.895 -19.895,19.895 M -428.56,19.423 c -2.008,0 -3.636,-1.628 -3.636,-3.635 v -51.94 c 0,-2.008 1.628,-3.636 3.636,-3.636 2.008,0 3.636,1.628 3.636,3.636 v 51.94 c 0,2.007 -1.628,3.635 -3.636,3.635 m 24.511,13.097 -49.022,-0.001 c -2.008,0 -3.636,-1.628 -3.636,-3.636 0,-2.008 1.628,-3.636 3.636,-3.636 l 49.022,0.001 c 2.008,0 3.636,1.627 3.636,3.635 0,2.009 -1.628,3.637 -3.636,3.637 m 249.773,1.269 c -16.001,0 -29.019,-13.018 -29.019,-29.018 v -40.923 c 0,-2.008 1.628,-3.636 3.636,-3.636 2.009,0 3.636,1.628 3.636,3.636 V 4.771 c 0,11.991 9.755,21.747 21.747,21.747 11.992,0 21.747,-9.756 21.747,-21.747 v -40.923 c 0,-2.008 1.628,-3.636 3.636,-3.636 2.008,0 3.636,1.628 3.636,3.636 V 4.771 c 0,16 -13.017,29.018 -29.019,29.018 m -366.891,0 c -16,0 -29.018,-13.018 -29.018,-29.018 v -40.923 c 0,-2.008 1.628,-3.636 3.636,-3.636 2.008,0 3.636,1.628 3.636,3.636 V 4.771 c 0,11.991 9.756,21.747 21.747,21.747 11.991,0 21.747,-9.756 21.747,-21.747 v -40.923 c 0,-2.008 1.627,-3.636 3.635,-3.636 2.009,0 3.636,1.628 3.636,3.636 V 4.771 c 0,16 -13.018,29.018 -29.019,29.018 m 239.944,-37.425 c 0,16.627 -13.527,30.154 -30.153,30.154 -16.626,0 -30.153,-13.527 -30.153,-30.154 0,-16.626 13.527,-30.153 30.153,-30.153 16.626,0 30.153,13.527 30.153,30.153 m 7.271,0 c 0,-20.636 -16.788,-37.425 -37.424,-37.425 -20.636,0 -37.425,16.789 -37.425,37.425 0,20.636 16.789,37.425 37.425,37.425 20.636,0 37.424,-16.789 37.424,-37.425 m 87.303,36.156 -49.022,-0.001 c -2.008,0 -3.636,-1.628 -3.636,-3.636 0,-2.008 1.628,-3.636 3.636,-3.636 l 49.022,0.001 c 2.007,0 3.635,1.627 3.635,3.635 0,2.009 -1.628,3.637 -3.635,3.637 m -24.512,-13.097 c -2.008,0 -3.636,-1.628 -3.636,-3.635 l 0.001,-51.94 c 0,-2.008 1.628,-3.636 3.636,-3.636 2.008,0 3.636,1.628 3.636,3.636 v 51.94 c 0,2.008 -1.628,3.635 -3.637,3.635 m 139.85,-6.798 c 0,10.97 -8.924,19.895 -19.894,19.895 -2.008,0 -3.636,-1.628 -3.636,-3.637 0,-2.008 1.628,-3.635 3.636,-3.635 6.96,0 12.623,-5.663 12.623,-12.623 0,-6.961 -5.663,-12.624 -12.623,-12.624 -2.008,0 -3.636,-1.627 -3.636,-3.635 0,-2.009 1.628,-3.637 3.636,-3.637 6.96,0 12.623,-5.663 12.623,-12.623 0,-6.96 -5.663,-12.623 -12.623,-12.623 -2.008,0 -3.636,-1.628 -3.636,-3.635 0,-2.008 1.628,-3.636 3.636,-3.636 10.97,0 19.894,8.925 19.894,19.894 0,6.712 -3.344,12.655 -8.451,16.259 5.107,3.605 8.451,9.547 8.451,16.26 M 13.108,-32.517 H -8.326 l -0.016,57.764 h 21.45 c 2.008,0 3.636,1.628 3.636,3.636 0,2.008 -1.628,3.636 -3.636,3.636 l -25.087,0.001 c -0.964,0 -1.889,-0.384 -2.571,-1.066 -0.682,-0.682 -1.065,-1.607 -1.064,-2.571 l 0.016,-65.035 c 0,-2.009 1.628,-3.636 3.637,-3.636 h 25.069 c 2.008,0 3.636,1.628 3.636,3.636 0,2.007 -1.628,3.635 -3.636,3.635 m -40.17,0 h -21.434 l -0.017,61.401 c 0,2.008 -1.628,3.636 -3.635,3.636 h -10e-4 c -2.008,-0.001 -3.636,-1.629 -3.635,-3.637 l 0.017,-65.035 c 0,-2.009 1.628,-3.636 3.636,-3.636 h 25.069 c 2.009,0 3.637,1.628 3.637,3.636 0,2.007 -1.628,3.635 -3.637,3.635 m -76.894,65.037 h -10e-4 c -2.008,-0.001 -3.636,-1.629 -3.636,-3.637 l 0.017,-65.035 c 0,-2.009 1.628,-3.636 3.636,-3.636 h 0.001 c 2.007,0 3.635,1.629 3.634,3.637 l -0.015,65.035 c 0,2.008 -1.628,3.636 -3.636,3.636 m -281.706,-3.636 0.017,-65.035 c 10e-4,-2.008 -1.627,-3.637 -3.635,-3.637 h -0.001 c -2.008,0 -3.635,1.627 -3.636,3.636 l -0.016,65.035 c -0.001,2.008 1.626,3.636 3.635,3.637 h 10e-4 c 2.007,0 3.635,-1.628 3.635,-3.636"
             style="fill:#2e2014;fill-opacity:1;fill-rule:nonzero;stroke:none"
             id="path3733"
             inkscape:connector-curvature="0" /></g></g></g></g></svg>